<svg id="Logo" xmlns="http://www.w3.org/2000/svg" viewBox="0 0 509.9 746.02"><defs><style>.cls-1{fill:#c00f23;}.cls-2{fill:#1d1d1b;}</style></defs><title>city-university-london-full</title><path class="cls-1" d="M428.52,315.52l-2.1.28a50.18,50.18,0,0,0-6.34,13.38,11.33,11.33,0,0,0,2,1.08,95.34,95.34,0,0,1,6.48-14.75m7.55,15.43c1.5-3.91,5.34-13,6.75-15.32a19.57,19.57,0,0,0-3.92-.39c-2.22,3.8-6.41,13.27-7.43,15.82,1.47,0.06,2.89-.11,4.59-0.11m-8.5.17a112.15,112.15,0,0,1,7.42-16s-2.38,0-3.29.12A107.26,107.26,0,0,0,424.19,331s0.8,0.43,3.38.13M546.29,579.79c6.07,2.72,10.1,15.88-3.18,21.86,6.77-17.13-19.53-32.86-46.85-16.39,0.9-1.12,1.83-2.21,2.69-3.35,28.49-18.19,75.27,2.25,93.28-24.35,1.08,6.91-5.44,16.56-19.51,19.22,14.8,1.82,22.29,9,32.33,11-9.86.34-34.37-12.42-58.76-8M453,610c-47.88-29.64-69-92.6-71.81-162.83,6-.59,19.49-1.84,35-2.74,0.2,37.41,3.9,83.73,22.15,132.07-1.8-27-4.38-81.46-3.77-132.89,6.14-.18,12.25-0.27,18.06-0.18l0.35-.26,0.34,0.26c27.14-.38,61,2.71,71.47,3.74C522,517.4,500.85,580.36,453,610m-89.51-7.89c-13.28-6-9.25-19.14-3.18-21.87-24.39-4.42-48.89,8.33-58.77,8,10-2,17.53-9.2,32.34-11-14.07-2.67-20.59-12.31-19.51-19.24,17.9,26.44,64.22,6.42,92.75,24,0.88,1.15,1.83,2.25,2.73,3.39-27.14-16-53.09-.37-46.36,16.67m18.2-198.51c8.65-1.35,21.64-2.79,35.37-3.8-0.21,7.87-.51,16.69-0.7,26.33-13.59.94-25.86,2.16-35.5,3.14q0.06-12.75.83-25.67M398,375.66c5.75-6.54,18.79-12.44,25.22-18.86a56.09,56.09,0,0,1,3.58,16.86c-2.38,3.06-10.55,5.11-13.28,9.64a35.23,35.23,0,0,0-.65,6.61l-5,.4c3.22-5.36-.87-9.94-6.27-11.43,0.68,5.44-1.93,8.27-3.74,8.62-3.92-1.08-3.09-8.16.14-11.83m20.17-32.53c-3.58-1.07-6.13-7-4.65-10.78,0.8-.78,2.07-0.91,3.29-2,2.16-2,1.87-11.51,12.25-20.53,7.6-1.7,18.49-2.27,24.45-1.31,0.66,0.42,7.73,3.16,9.24,26.27a91.64,91.64,0,0,0,15.32-3c-10.66,8.85-57.57,12-59.9,11.34m7.94-46.65a24.5,24.5,0,0,1,10.8-.17c2-.68,7.49-1.28,10.72-0.17,4.94-1.2,11.13-.72,13.59.2,3-1.37,8.77-.71,11.26.14,8.84-2.13,13.41,2.18,13.41,5,0,2-.61,2.52-1.64,3.08-3.61,2-2.59-3.54-10.27-5.3,3.34,1.68,3.6,5.42,7.34,6.18-12.5,2-10-7.83-19.05-7.83,3.85,1.13,4.45,5.85,8.2,7.65-12.8,1.28-11.69-8.17-21.11-7.94,4.66,1.36,5,6.1,10,7.69-13.62,1.86-11.37-8.38-21.47-7.63,4.76,2.1,5.64,6.18,10.15,7.29-12.65,3.37-12.28-7.15-20.59-6.3,3.74,0.94,5.36,5.22,8.42,6.46-7.14,2.64-6.89-3.32-13-3.24,2.38,0.94,3.29,2.84,5.5,3.95-11.88,1.76-10.35-9.9-2.27-9m48.16,26.12a2.81,2.81,0,1,1-2.9,2.81,2.85,2.85,0,0,1,2.9-2.81m14.35,55.47c-4.31-.23-4.82.62-7.2,1.19-6-9-6.64-25-1.2-34.77-0.45,12,1.37,29.16,8.4,33.58M508,375.73c3.24,3.68,4.07,10.77.15,11.85-1.82-.34-4.42-3.18-3.74-8.63a12.47,12.47,0,0,0-4.75,2.46,9.75,9.75,0,0,0-6.48-2.91c-5-5.38-6.95-12.18-7.47-19,6.89,5.45,17.32,10.63,22.29,16.27m-11,10.52a7,7,0,0,0,1.05,4.05q-7.31-.61-14.12-1a23.26,23.26,0,0,1,13.06-3m-22.91-10.1c-5.75-4.56-10.38-20.83-4.77-32.79,1.2-3.24,5.11-5.28,4.66-2.61-3.18,10.21-2.83,26.32.11,35.39m-47.65,18.78c5.28-10,6.47-23.65-.68-42.89,5.44,5.1,8.67,18.38,9.18,24.85,1.76-2.5,2.5-10.44,1.82-15.72,4.19,16.67,1,39.82-3.07,43.45-2.67-1.36-4.76-4.42-6.47-7a27.19,27.19,0,0,0,5.33,9.92c26.54-9,45.83-30.57,61-24.9-8.4.45-14.63,4.31-20.42,9.76-9-1.37-15.77,15.65-43.79,24.1-3.51-2.21-7.35-13.5-8.73-17.47s-2.71-4.89-4.59-4.94a20.15,20.15,0,0,1,.68-10s2.1-2.21,7.77-4.25a51.09,51.09,0,0,0,1.93,15.15m97.85,8.67q0.78,12.91.83,25.67c-17.8-1.82-44.66-4.46-72.13-4.57-6.07,0-12.11.18-18,.41,0.05-2.14.13-4.26,0.2-6.38,15-5,26.6-15.59,33.71-20a524.27,524.27,0,0,1,55.42,4.9m-160.08-8.12c0,7.56,0,14.71,0,21.61-1-3.47-3.45-7.22-8.13-11.1-4.54,21.94-28.66,22-40,8.38,4.32-17.17,25.61-26.71,46.71-31.87,0.54,5.7,2.56,9.67,5.42,12.38l-4,.6m-14.56,41.7c3.85-.34,12.49-5.46,14.62-13.06,0.08,11.08.28,21.61,0.8,32.21-2.45-6.54-7.11-13.16-15.42-19.15m193.54-54.6c21.11,5.16,42.38,14.7,46.72,31.87-11.36,13.57-35.47,13.55-40-8.39-4.68,3.89-7.15,7.63-8.13,11.1,0-6.92,0-14.09,0-21.68l-3.95-.59c2.84-2.69,4.82-6.66,5.36-12.31m-2.27,73.83c0.53-10.59.72-21.13,0.8-32.21,2.14,7.59,10.78,12.72,14.63,13.06-8.32,6-13,12.61-15.43,19.15m76.41,129.1a23.29,23.29,0,0,0,8.85-16.28c-15.66,13.62-38,7.32-38,7.32s26.09-8.68,4.65-38c1.36,26.89-27.11,30.31-48.67,30.3-15.57,0-29.95,1.74-40.16,6.12,18.11-25.74,29.61-54,32.73-75.32,1.09-7.48,1.94-14.59,2.61-21.49l0.11,0.69c2,11.1,6.24,16,25,23.81s17.62,20.12,7.88,27.66c14.52,4.14,24.71-17.82,9.1-37.61,1.53-1.28,8.25-10.64-.77-22-4.65,8.49-15,11.41-21.67,10,13.84,6.57,20.65-2.61,21.78-4.08,3.74,8.84-1,16-5.44,16.11,7.72,5.9,13,12.86,11.21,23.94-1.39-8.08-19.77-14.9-29.36-20.43-7.49-4.31-11.91-16.16-1.3-22.16s21.09-10.75,29.21-19c1.36,5.68,7,18.61,28.25,24.84-23.95-35.5,9.18-37.1-7.15-69.54-2.72,30.85-45.61,38.12-45.61,38.12,35.73-14.3,47.09-35.34,40.51-56.17-4.38-13.81-17.65-27.51-46.41-36.86,5.68-1.13,9.65-2.67,12.59-5.33-17,4-21.84,3.4-29.16,2.38,35.18,9.74,53.36,21.81,57,38.12,1.77,8,.45,14.88-2.63,20.23-6.36-21.37-39.74-30.34-51.94-32.71,0,6.91-2.89,11.25-6.94,13.86L512,388.74a12.51,12.51,0,0,0,2.42-11.09c-1.7-7-8.77-15.73-28.61-29.51,0.13-1.7.3-3.35,0.46-4.94,8.81,7,25.83,16,41,20.14-12.07-5.17-31.13-14.87-40.58-24.47,0-.36.08-0.73,0.1-1.08,0.11-1.17.18-2.35,0.25-3.52,17.39,13.14,32.38,16.13,37.84,16.13-8.48-2.31-41.72-17.62-57.69-42.6,3.48,0.1,6.95.23,10.35,0.36a93.22,93.22,0,0,0,23,24A71.89,71.89,0,0,1,483.77,308h-0.14a6.33,6.33,0,0,0,5.25-6.24c0-2.68-1.3-8.61-16.17-7.79H472A59.88,59.88,0,0,0,456,291.24c-0.68-4.26-4.09-6.3-5.79,0a93.65,93.65,0,0,0-13.9,2.49c-3.35-.3-7.46-0.28-10.26.63-6.49.41-9,3.77-9.14,7.1a6.48,6.48,0,0,0,6.2,6.71c-2.19,3.41-10.63,16.31-17.83,24.09,5-3.07,11.47-9.42,11.47-9.42l0.62-1c-0.75,2.5-1.38,4.73-2,6.18a11.62,11.62,0,0,1-3.55,2c-0.28.14-2.09,0.93-2.21,2.26l0,0.53c-10.5,11.87-50,30.44-66.27,38.15,17.89-7.51,41.11-14.51,66.35-33.24a15.14,15.14,0,0,0,.9,3.6c-9.08,9.1-22.55,16.52-30.82,22.44,12.75-5.13,24.66-13.88,32.66-19.26a6.43,6.43,0,0,0,1.6,1.34,18.62,18.62,0,0,0,3,.45,15,15,0,0,1,2.11,2.48c-19,13.35-25.91,21.86-27.57,28.77a12.47,12.47,0,0,0,2.55,11.26l-21.46,3.26c-4.16-2.6-7.1-7-7.13-14-12.19,2.38-45.58,11.35-51.94,32.71-3.08-5.36-4.4-12.2-2.63-20.23,3.59-16.31,21.77-28.36,57-38.12-7.32,1-12.14,1.58-29.16-2.38,2.95,2.67,6.92,4.2,12.59,5.33-28.75,9.36-42,23.06-46.4,36.87-6.59,20.83,4.77,41.87,40.5,56.16,0,0-42.88-7.26-45.6-38.12-16.34,32.45,16.79,34-7.15,69.55,21.21-6.25,26.88-19.18,28.25-24.84,8.11,8.27,18.59,13,29.2,19s6.2,17.86-1.29,22.16c-9.58,5.52-29,13.05-29.28,20.76-2-11.12,3.41-18.37,11.12-24.28-4.48-.05-9.19-7.25-5.45-16.1,1.13,1.47,7.94,10.66,21.78,4.07-6.69,1.42-17-1.5-21.67-10-9,11.4-2.3,20.76-.77,22-2.62,3.5-12.82,17.66-4.89,31.76,1.77,3.13,6.9,8.14,13.94,5.87-9.53-7.49-10.78-19.86,7.95-27.68s22.91-12.71,25-23.83l0.11-.65c0.67,6.93,1.52,14,2.61,21.54,3.13,21.35,14.71,49.77,32.93,75.59-10.19-4.25-24.38-5.95-39.73-5.94-21.56,0-50-3.41-48.67-30.29-21.44,29.28,4.65,38,4.65,38s-22.35,6.29-38-7.32A23.34,23.34,0,0,0,289.27,586c-2,.23-24.17,3.11-36-15.49,7.5,46.06,77.38,21.79,88.27,16.28-4.44,4.19-13.39,15.88-4.54,24.05,0.23-11.53,12.48-17.42,15.66-18,1.47,7.21,7.83,11.69,13.61,13-1.36-7.72-.37-20.34,25.3-18.95,12.33,0.67,24.46,8.88,34.66,16.84l0.87,0.69A155,155,0,0,0,453,624.49a154.67,154.67,0,0,0,25.66-19.89l1.69-1.32L515,586.43c25.67-1.39,26.66,11.23,25.3,18.94,5.79-1.36,12.14-5.84,13.61-13,3.18,0.63,15.43,6.53,15.65,18,8.85-8.16-.11-19.85-4.53-24,10.88,5.5,80.77,29.78,88.25-16.29-11.79,18.61-33.92,15.72-36,15.49M524,341.18c-8.56-1-13.16-2.5-18.92-5.89,16.72,13.11,42.12,16.66,66.12,12.24,10.45-1.93,26.43-1.19,36.07,3.63-3.06-6-19.17-16.9-27.43-18.07,10-16,2.65-27.42,19-37.63-2.89-2.84-12.65-4.65-20,.32-3.35-3.89-9.81-9.59-19.21-10.58-11.21-1.2-19.14,1-26.17,10.77,9.36-10.55,28.65-12.87,40.9-1.3-19.51-9.53-33.24,9.3-34.43,29.72-5.27-6.8-7.94-17.64-7.77-20.87-7,.68-13.33,6.69-13.84,16.56-2.55-3.4-9.53-22.58,3.86-32-3.86-4.54-5.22-9.53-4-12.88,8.68,5.27,21.73,3.8,36,7.2-13.84-8.39-28.79-3.12-39.42-13-2.35,6.3.17,13,3.4,18.21-14.8,16.34-3.91,37.61,3.07,41.52-0.85-7.49,1.92-16.41,8.22-19.74C530.87,320,540.26,330,541.8,332.73c0.18-5.28,2-26.42,9.53-25.81,4.64,0.38,8.27,9.19,6.58,15.55-2.29,8.63-8.86,21.54-33.93,18.72m-78.46-11.25c1-2.13,2.93-8.39,4.55-13.28l-3.66-.64c-2.13,5.11-5.59,13.23-6,14.55a51,51,0,0,0,5.1-.63M334.76,347.45c24,4.42,49.39.87,66.12-12.23-5.76,3.38-10.35,4.92-18.93,5.88C356.89,343.93,350.33,331,348,322.38c-1.7-6.34,1.93-15.16,6.58-15.54,7.56-.6,9.35,20.54,9.53,25.81,1.53-2.72,10.92-12.69,12.36-23.32,6.3,3.33,9.08,12.26,8.22,19.74,7-3.91,17.87-25.19,3.07-41.52,3.23-5.21,5.75-11.91,3.4-18.2-10.64,9.87-25.58,4.59-39.42,13,14.3-3.4,27.34-1.93,36-7.21,1.18,3.36-.18,8.34-4,12.88,13.39,9.41,6.41,28.59,3.86,32-0.51-9.87-6.86-15.88-13.84-16.56,0.17,3.23-2.5,14.06-7.77,20.87-1.2-20.42-14.92-39.26-34.43-29.72,12.25-11.57,31.54-9.25,40.9,1.3-7-9.74-15-12-26.17-10.77-9.4,1-15.86,6.69-19.21,10.59-7.32-5-17.07-3.16-20-.32,16.33,10.21,9,21.61,19,37.63-8.27,1.16-24.37,12.11-27.44,18.07,9.65-4.82,25.62-5.56,36.08-3.63m125.7-12.36c-6.83.65-24.84,2.67-38.12,1.3a12.52,12.52,0,0,1-5.11-4.42,13.41,13.41,0,0,0,2.72,7.32c6.24,0.91,36-1.82,40.51-4.19m-20.65-85c0.91,8.85,5.21,13.61,7.26,12.71s-2.27-17.7,7.5-26.32c-4.54,9.3,0,16.65,1.58,25.41,1.09,5.83-.68,14.53-3.63,16.12s-15.89-7.72-12.71-27.91m-6.24,20.08c2.05,8.32,9.74,14.27,19.4,15.08,4.71,0.4,12.93-2.49,14.07-11.12-8.17,2.95-4.09-4.54,1.59-7.49s10.72-11.45,4.93-21.67c-1.36,11.23-12.8,16.1-11.51,9.65,0.9-4.54,14.29-20,4.53-37.89-1.36,5.44-1,10.55-5.45,9.53s-9.64-19.17-1.13-27c-9.24,1-15.71,12-14.52,19.51s4.94,16.85,0,19.74c-2.76,1.62-4.72.4-5.28-1.87-1.05-4.3.25-12.82-8.34-15.83,5.78,11.57-2.48,32.46,1.7,49.35" transform="translate(-198.33 -199.29)"/><path class="cls-2" d="M341.54,704.17H339.2q-1.18-2.11-3.52-5.87A26.74,26.74,0,0,0,328.4,691a49.19,49.19,0,0,0-13.15-6.22q-8.22-2.7-20.89-2.7-29.58,0-44.84,18.31T234.27,752.3q0,3.05.23,8.45A83,83,0,0,0,236,772.84a78.43,78.43,0,0,0,4.23,14.08,60.23,60.23,0,0,0,8.33,14.44,52.06,52.06,0,0,0,7.16,8,55.17,55.17,0,0,0,9.27,6.81A46.92,46.92,0,0,0,276.64,821a54.86,54.86,0,0,0,14.44,1.76,67.59,67.59,0,0,0,19.13-2.46,63.32,63.32,0,0,0,26.17-14.91A123.07,123.07,0,0,0,345.3,796l2.58,1.64-2.58,23.24q-26.76,14.79-59.39,14.79a98.34,98.34,0,0,1-32.39-5.28,77.23,77.23,0,0,1-26.64-15.49,73,73,0,0,1-18.08-25.47q-6.69-15.26-6.69-35a97.91,97.91,0,0,1,5.52-33.1,73.11,73.11,0,0,1,16.78-27q11.27-11.5,28.52-18.19t40.73-6.69a137.68,137.68,0,0,1,27.7,2.7,130.59,130.59,0,0,1,27.23,9Z" transform="translate(-198.33 -199.29)"/><path class="cls-2" d="M378.16,725.54q0-11.27-.23-24.18t-2.11-30q3.28,0.47,8.69.94t8,0.47a74,74,0,0,0,8.22-.47l8.45-.94q-0.94,6.57-1.53,16.78t-0.82,21.71q-0.24,11.5-.23,22.89V753q0,26.29.47,45.66t1.88,33.69q-4-.23-8.22-0.82a60,60,0,0,0-8.22-.59,65.17,65.17,0,0,0-8.45.59q-4.46.59-8.45,0.82,1.88-21.13,2.23-48.83T378.16,725.54Z" transform="translate(-198.33 -199.29)"/><path class="cls-2" d="M502.06,800.18q0,13.38.59,20.31t1.05,11.85l-10.09-.94q-4.93-.47-7-0.47a59.64,59.64,0,0,0-6.34.35l-9.63,1.06q0.71-13.38,1.53-26.88T473,778.59l-0.24-65.49q0-6.57-.12-12.91T472.25,687H460.51q-0.7,0-4.93.12t-9.74.24q-5.52.12-11.5,0.47t-10.45.82a32.72,32.72,0,0,0,0-17.37q7,0.47,15.14.7l16.43,0.47q8.33,0.24,16.32.23h14.79q14.79,0,30.28-.23t32.4-1.17a62,62,0,0,0-1.17,8.92,20.26,20.26,0,0,0,.35,3.76c0.23,1.25.5,2.82,0.82,4.69q-10.56-1.17-22.54-1.41T502.53,687q-0.24,6.34-.35,12.91t-0.12,13.38v86.86Z" transform="translate(-198.33 -199.29)"/><path class="cls-2" d="M647.65,778.12q0,7.52.12,13.73t0.35,12.56q0.23,6.34.47,13t0.7,14.91l-8.16-.94a72.74,72.74,0,0,0-8.16-.47,78.62,78.62,0,0,0-8,.47q-4.49.47-7.8,0.94,0.23-6.8.47-15.61t0.47-17.61q0.23-8.8.35-16.9t0.12-13.5l-13.85-23.94q-4.46-7.75-10.21-17.37t-11.74-19.48q-6-9.86-11.85-19.37t-10.33-17.25q6.57,0.7,10.92,1.06t8.33,0.35q4.22,0,9.15-.23a76.3,76.3,0,0,0,10.09-1.17q4.46,9.63,8.69,18.31t8.93,17.84q4.7,9.15,10.38,19.6t13.26,23.59q7.57-12.91,12.5-21.71t9-16.9q4.1-8.1,8.45-17.49T681,671.31q2.82,0.47,6.22.94a54,54,0,0,0,7.39.47,38.12,38.12,0,0,0,5.75-.35,21.06,21.06,0,0,0,4.11-1.06l-4.81,8q-3.4,5.63-7.28,11.85t-7.28,11.74q-3.4,5.52-4.81,7.63-8,12.68-15,25.71t-14.55,25.7q-1.18,2.11-2.11,4a7.9,7.9,0,0,0-.94,3.52v8.69Z" transform="translate(-198.33 -199.29)"/><path class="cls-2" d="M223.06,861.13a44,44,0,0,0-.21-4.55l0.9,0.15a5.74,5.74,0,0,0,.86.07,4.65,4.65,0,0,0,1.29-.21q-0.13,1.5-.26,3.58t-0.21,4.46q-0.09,2.38-.17,4.89t-0.13,4.87a15.55,15.55,0,0,1-.88,5.15,10.82,10.82,0,0,1-2.38,3.86,9.92,9.92,0,0,1-3.8,2.4,15.18,15.18,0,0,1-5.17.82q-6.44,0-9.36-2.92t-2.92-9.23q0-2,.11-3.58t0.11-3.2q0-3.61-.09-6.4t-0.17-4.72q0.52,0.09,1.12.15a10.46,10.46,0,0,0,1.12.07,6.47,6.47,0,0,0,.92-0.07l0.92-.15q-0.09.94-.17,2.47t-0.17,3.46q-0.09,1.93-.13,4.16t0,4.64q0,1.46,0,3a21.08,21.08,0,0,0,.3,3,12.69,12.69,0,0,0,.84,2.83,7,7,0,0,0,1.65,2.36,7.6,7.6,0,0,0,2.7,1.59,12.15,12.15,0,0,0,4,.58,10.12,10.12,0,0,0,4-.69,7.56,7.56,0,0,0,2.64-1.8,8.25,8.25,0,0,0,1.61-2.58,14.55,14.55,0,0,0,.84-3,23.88,23.88,0,0,0,.3-3.18q0-1.59,0-2.92Q223.11,864.44,223.06,861.13Z" transform="translate(-198.33 -199.29)"/><path class="cls-2" d="M247.79,874.93q-5.58-6-11.16-11.91,0,1.2-.09,3.22t0,5.49c0,0.6,0,1.35,0,2.23s0,1.82,0,2.79,0,2,.06,3,0.06,1.93.09,2.79,0.06,1.61.09,2.25,0.06,1.08.09,1.31a11.88,11.88,0,0,0-1.5-.09,13.31,13.31,0,0,0-1.59.09c0.06-.29.12-0.82,0.19-1.59s0.14-1.7.19-2.77,0.12-2.24.19-3.5,0.13-2.52.17-3.78,0.08-2.49.11-3.69,0-2.28,0-3.22q0-4.12,0-7.08T234.57,856h0.69l5.6,6.07q3,3.24,5.92,6.4l5.58,6q2.64,2.81,4.61,4.79v-5.84q0-4.51-.06-8.78t-0.28-8a6.19,6.19,0,0,0,1.46.21,6,6,0,0,0,1.37-.21q-0.09.94-.19,2.83t-0.21,4q-0.11,2.15-.19,4.21T258.78,871v2.58q0,1.46,0,3t0,3.2q0,1.61,0,3t0,2.42v1.42h-0.6Q253.37,880.92,247.79,874.93Z" transform="translate(-198.33 -199.29)"/><path class="cls-2" d="M267.43,862.14q-0.11-2.73-.24-5.56l1.07,0.15a8.16,8.16,0,0,0,2.06,0l1.07-.15q-0.13,2.83-.24,5.56t-0.11,5.56v7.38q0,2.83.11,5.58t0.24,5.41q-1-.09-2.1-0.09t-2.1.09q0.13-2.66.24-5.41t0.11-5.58V867.7Q267.54,864.87,267.43,862.14Z" transform="translate(-198.33 -199.29)"/><path class="cls-2" d="M285.57,880q-1.42-3.56-3-7.51t-3.31-8.07q-1.7-4.12-3.24-7.81l1.16,0.15a8.84,8.84,0,0,0,2.15,0l1.16-.15q0.94,2.83,2.08,5.95t2.4,6.33q1.27,3.22,2.6,6.53t2.7,6.57q0.77-1.76,1.67-3.93t1.82-4.51q0.92-2.34,1.82-4.77l1.74-4.66q0.84-2.23,1.52-4.16t1.16-3.35a6,6,0,0,0,3.18,0q-3.35,7.47-6.44,14.81t-5.92,14.68a11.14,11.14,0,0,0-1.42-.09,9.39,9.39,0,0,0-1.42.09Q287,883.54,285.57,880Z" transform="translate(-198.33 -199.29)"/><path class="cls-2" d="M308,862.08q-0.11-2.75-.24-5.49l3.84,0.15q1.91,0.06,3.84.07t3.82-.07l3.82-.15a6.52,6.52,0,0,0,0,2.58l-2.51-.17-2.4-.17q-1.27-.08-2.77-0.15t-3.61-.06q0,1.38-.11,2.62t-0.06,2.83q0,1.67,0,3.26t0,2.4q1.89,0,3.39,0t2.75-.11l2.3-.13q1.05-.06,2-0.15a6.76,6.76,0,0,0-.13,1.33,6.56,6.56,0,0,0,.13,1.29q-1.12-.13-2.6-0.21t-3-.11l-2.79,0-2.08,0c0,0.26,0,.54,0,0.84s0,0.68,0,1.14v4.25q0,2.45,0,4t0.06,2.4h3q1.63,0,3.2-.06t3-.17a19,19,0,0,0,2.43-.32,3.08,3.08,0,0,0-.11.67q0,0.37,0,.67a4,4,0,0,0,.13,1.12q-1.93-.09-3.84-0.09h-7.79q-1.93,0-3.91.09,0.13-2.75.24-5.47T308.1,875v-7.38Q308.1,864.82,308,862.08Z" transform="translate(-198.33 -199.29)"/><path class="cls-2" d="M329.46,862.14q-0.11-2.73-.24-5.56l2.45,0.15q1.2,0.06,2.45.07t2.45-.11q1.2-.11,2.45-0.11a16.61,16.61,0,0,1,3.43.34,8.36,8.36,0,0,1,2.85,1.14,5.74,5.74,0,0,1,1.93,2.08,7.45,7.45,0,0,1-.21,6.76,8.63,8.63,0,0,1-2.25,2.45,11.12,11.12,0,0,1-2.85,1.5,14.24,14.24,0,0,1-2.77.71l1.42,1.8q0.9,1.16,2,2.55l2.32,2.92,2.32,2.92q1.12,1.4,2.1,2.55t1.59,1.76a9.49,9.49,0,0,0-1.29-.09h-2.53a8.58,8.58,0,0,0-1.24.09l-2-2.7q-1.31-1.8-2.9-3.86t-3.24-4.1q-1.65-2-3-3.46h-1.63v3.13q0,2.83.11,5.58t0.24,5.41q-1-.09-2.1-0.09t-2.1.09q0.13-2.66.24-5.41t0.11-5.58V867.7Q329.57,864.87,329.46,862.14Zm4.94,8.18q0.71,0,1.57,0a13.53,13.53,0,0,0,2.77-.3,8,8,0,0,0,2.64-1.05,6.25,6.25,0,0,0,2-2,5.92,5.92,0,0,0,.79-3.2,5.55,5.55,0,0,0-.62-2.77,5,5,0,0,0-1.61-1.74,6.14,6.14,0,0,0-2.15-.88,11.39,11.39,0,0,0-2.28-.24q-1.5,0-2.49.06t-1.67.15l-0.17,4.68q-0.09,2.32-.09,4.64v2.45A8.9,8.9,0,0,0,334.4,870.32Z" transform="translate(-198.33 -199.29)"/><path class="cls-2" d="M355.78,882.06a7.07,7.07,0,0,0,1.42,1.44,7.27,7.27,0,0,0,2,1.05,7.2,7.2,0,0,0,2.49.41,6.36,6.36,0,0,0,2.55-.49,5.69,5.69,0,0,0,3.16-3.31,6.82,6.82,0,0,0,.43-2.43,4.61,4.61,0,0,0-1-3.13,8.33,8.33,0,0,0-2.51-1.93,29.35,29.35,0,0,0-3.24-1.42,16.73,16.73,0,0,1-3.24-1.61,8.59,8.59,0,0,1-2.51-2.47,7.14,7.14,0,0,1-1-4,8.14,8.14,0,0,1,.64-3.28,7.16,7.16,0,0,1,1.87-2.55,8.83,8.83,0,0,1,2.94-1.67,11.64,11.64,0,0,1,3.86-.6,11.46,11.46,0,0,1,3.56.49,8.88,8.88,0,0,1,2.79,1.52,9.28,9.28,0,0,0-.64,1.55q-0.26.82-.52,2.06h-0.52a11,11,0,0,0-.58-1.31,5,5,0,0,0-1-1.31,5.54,5.54,0,0,0-1.48-1,4.78,4.78,0,0,0-2.06-.41,6.12,6.12,0,0,0-2.21.39,5.29,5.29,0,0,0-1.76,1.09,4.83,4.83,0,0,0-1.16,1.7,5.56,5.56,0,0,0-.41,2.15,4.68,4.68,0,0,0,1,3.18,8.63,8.63,0,0,0,2.51,2,24.58,24.58,0,0,0,3.24,1.42A18.21,18.21,0,0,1,367.6,871a8.28,8.28,0,0,1,2.51,2.32,6.39,6.39,0,0,1,1,3.78,9.91,9.91,0,0,1-.71,3.73,8.79,8.79,0,0,1-2.06,3.07,9.16,9.16,0,0,1-3.31,2,13,13,0,0,1-4.44.71,11.08,11.08,0,0,1-4.31-.71,11.72,11.72,0,0,1-2.77-1.61,10.18,10.18,0,0,0,.54-1.78q0.15-.79.28-2h0.52A8.58,8.58,0,0,0,355.78,882.06Z" transform="translate(-198.33 -199.29)"/><path class="cls-2" d="M377.15,862.14q-0.11-2.73-.24-5.56l1.07,0.15a8.16,8.16,0,0,0,2.06,0l1.07-.15q-0.13,2.83-.24,5.56t-0.11,5.56v7.38q0,2.83.11,5.58t0.24,5.41q-1-.09-2.1-0.09t-2.1.09q0.13-2.66.24-5.41t0.11-5.58V867.7Q377.26,864.87,377.15,862.14Z" transform="translate(-198.33 -199.29)"/><path class="cls-2" d="M395,858.81l-2.34,0q-1.22,0-2.45.09l-2.36.15q-1.14.09-2,.21a5.21,5.21,0,0,0,.21-1.37,5.93,5.93,0,0,0-.21-1.33l5.54,0.15q2.7,0.06,5.54.07t5.54-.07l5.54-.15a6,6,0,0,0-.21,1.37,5.07,5.07,0,0,0,.21,1.33q-0.9-.13-2-0.21l-2.36-.15q-1.22-.06-2.45-0.09l-2.34,0q-0.13,4.42-.13,8.89v7.38q0,2.83.11,5.58t0.24,5.41q-1-.09-2.1-0.09t-2.1.09q0.13-2.66.24-5.41t0.11-5.58V867.7Q395.16,863.24,395,858.81Z" transform="translate(-198.33 -199.29)"/><path class="cls-2" d="M419,871.89l-1.85-3.09L415,865.23l-2.13-3.56-1.82-3q-0.82-1.35-1.24-2l1.18,0.15a10.69,10.69,0,0,0,2.36,0l1.18-.15q1.93,3.73,3.93,7.34t4.23,7.51q1-1.55,2.06-3.39t2.15-3.78q1.07-1.93,2.06-3.88t1.85-3.8a6.63,6.63,0,0,0,3.35,0q-2.06,3.13-3.69,5.67t-2.88,4.59q-1.25,2.06-2.19,3.71t-1.63,3q0,1.59,0,3.39t0.06,3.54q0,1.74.11,3.22t0.15,2.38q-1-.09-2.1-0.09t-2.1.09q0.26-2.23.3-5.41t0-6.65Z" transform="translate(-198.33 -199.29)"/><path class="cls-2" d="M450,864.89a13.58,13.58,0,0,1,3.31-4.83,14.25,14.25,0,0,1,5.09-3,21,21,0,0,1,13,0,14.26,14.26,0,0,1,5.09,3,13.58,13.58,0,0,1,3.31,4.83,18.5,18.5,0,0,1,0,13,13.24,13.24,0,0,1-8.39,7.77,22.38,22.38,0,0,1-13,0A13.24,13.24,0,0,1,450,877.9,18.51,18.51,0,0,1,450,864.89Zm25.86,0.34a11.69,11.69,0,0,0-2.51-4.29,10,10,0,0,0-3.78-2.51,13.83,13.83,0,0,0-9.36,0,10,10,0,0,0-3.78,2.51,11.72,11.72,0,0,0-2.51,4.29,21.49,21.49,0,0,0,0,12.32,11.71,11.71,0,0,0,2.51,4.29,10,10,0,0,0,3.78,2.51,13.82,13.82,0,0,0,9.36,0,10,10,0,0,0,3.78-2.51,11.67,11.67,0,0,0,2.51-4.29A21.49,21.49,0,0,0,475.87,865.23Z" transform="translate(-198.33 -199.29)"/><path class="cls-2" d="M486.88,862.14q-0.11-2.73-.24-5.56l3.84,0.15q1.91,0.06,3.84.07t3.91-.07l4.29-.15a6.52,6.52,0,0,0,0,2.58q-1.16-.13-2.79-0.24t-3.33-.17l-3.26-.11q-1.57,0-2.6,0,0,1.5-.06,2.88t0,2.75q0,1.5,0,2.77t0,2.64q2.83,0,5.6-.09t5.47-.34a4.92,4.92,0,0,0,0,2.58q-1.07-.13-2.42-0.19l-2.81-.11q-1.46,0-3,0h-2.88v3.65q0,2.83.11,5.58t0.24,5.41q-1-.09-2.1-0.09t-2.1.09q0.13-2.66.24-5.41t0.11-5.58V867.7Q487,864.87,486.88,862.14Z" transform="translate(-198.33 -199.29)"/><path class="cls-2" d="M520.28,862.14q-0.11-2.73-.24-5.56l1.07,0.15a8.15,8.15,0,0,0,2.06,0l1.07-.15q-0.13,2.83-.24,5.56t-0.11,5.56q0,5.41,0,9.38t0.09,7.1q3,0,5.84-.06a55.2,55.2,0,0,0,6-.49,5,5,0,0,0-.21,1.29,4,4,0,0,0,.21,1.16q-2-.09-3.95-0.09H524q-1.91,0-4,.09,0.13-2.66.24-5.41t0.11-5.58V867.7Q520.38,864.87,520.28,862.14Z" transform="translate(-198.33 -199.29)"/><path class="cls-2" d="M540.62,864.89a13.57,13.57,0,0,1,3.31-4.83,14.25,14.25,0,0,1,5.09-3,21,21,0,0,1,13,0,14.24,14.24,0,0,1,5.09,3,13.59,13.59,0,0,1,3.31,4.83,18.52,18.52,0,0,1,0,13,13.24,13.24,0,0,1-8.39,7.77,22.38,22.38,0,0,1-13,0,13.24,13.24,0,0,1-8.39-7.77A18.5,18.5,0,0,1,540.62,864.89Zm25.86,0.34a11.7,11.7,0,0,0-2.51-4.29,10,10,0,0,0-3.78-2.51,13.27,13.27,0,0,0-4.7-.82,13.14,13.14,0,0,0-4.66.82,10,10,0,0,0-3.78,2.51,11.7,11.7,0,0,0-2.51,4.29,21.49,21.49,0,0,0,0,12.32,11.69,11.69,0,0,0,2.51,4.29,10,10,0,0,0,3.78,2.51,13.11,13.11,0,0,0,4.66.82,13.24,13.24,0,0,0,4.7-.82,10,10,0,0,0,3.78-2.51,11.69,11.69,0,0,0,2.51-4.29A21.49,21.49,0,0,0,566.49,865.23Z" transform="translate(-198.33 -199.29)"/><path class="cls-2" d="M591.26,874.93q-5.58-6-11.16-11.91,0,1.2-.09,3.22t0,5.49c0,0.6,0,1.35,0,2.23s0,1.82,0,2.79,0,2,.06,3,0.06,1.93.09,2.79,0.06,1.61.09,2.25,0.06,1.08.09,1.31a11.89,11.89,0,0,0-1.5-.09,13.31,13.31,0,0,0-1.59.09c0.06-.29.12-0.82,0.19-1.59s0.14-1.7.19-2.77,0.12-2.24.19-3.5,0.13-2.52.17-3.78,0.08-2.49.11-3.69,0-2.28,0-3.22q0-4.12,0-7.08T578,856h0.69l5.6,6.07q3,3.24,5.92,6.4l5.58,6q2.64,2.81,4.62,4.79v-5.84q0-4.51-.06-8.78t-0.28-8a6.19,6.19,0,0,0,1.46.21,6,6,0,0,0,1.37-.21q-0.09.94-.19,2.83t-0.21,4q-0.11,2.15-.19,4.21T602.25,871v2.58q0,1.46,0,3t0,3.2q0,1.61,0,3t0,2.42v1.42h-0.6Q596.84,880.92,591.26,874.93Z" transform="translate(-198.33 -199.29)"/><path class="cls-2" d="M610.9,862.14q-0.11-2.73-.24-5.56l3.24,0.15q1.61,0.06,3.24.07t3.24-.11q1.61-.11,3.24-0.11a18.77,18.77,0,0,1,6.46,1,11.28,11.28,0,0,1,4.4,2.81,11,11,0,0,1,2.51,4.46,20.62,20.62,0,0,1,.79,5.95,16,16,0,0,1-1.48,7.23,13.81,13.81,0,0,1-3.78,4.74,14.1,14.1,0,0,1-5.07,2.55,20.2,20.2,0,0,1-5.3.75q-1.46,0-2.88,0t-2.88,0h-2.88q-1.42,0-2.88.09,0.13-2.66.24-5.41t0.11-5.58V867.7Q611,864.87,610.9,862.14Zm3.89,22a15.56,15.56,0,0,0,2.45.32q1.55,0.11,3.18.11a20.46,20.46,0,0,0,4.72-.56,10.25,10.25,0,0,0,4.23-2.1,11.24,11.24,0,0,0,3-4.23,20.91,20.91,0,0,0,.26-13.07,9.34,9.34,0,0,0-2.53-3.8,9,9,0,0,0-3.84-1.93,20.92,20.92,0,0,0-4.89-.54q-1.93,0-3.61.13t-3,.3q-0.13,2.06-.19,4.31t-0.06,4.57v7.38Q614.52,879.72,614.78,884.18Z" transform="translate(-198.33 -199.29)"/><path class="cls-2" d="M643.18,864.89a13.57,13.57,0,0,1,3.31-4.83,14.25,14.25,0,0,1,5.09-3,21,21,0,0,1,13,0,14.24,14.24,0,0,1,5.09,3,13.59,13.59,0,0,1,3.31,4.83,18.52,18.52,0,0,1,0,13,13.24,13.24,0,0,1-8.39,7.77,22.38,22.38,0,0,1-13,0,13.24,13.24,0,0,1-8.39-7.77A18.5,18.5,0,0,1,643.18,864.89ZM669,865.23a11.7,11.7,0,0,0-2.51-4.29,10,10,0,0,0-3.78-2.51,13.27,13.27,0,0,0-4.7-.82,13.14,13.14,0,0,0-4.66.82,10,10,0,0,0-3.78,2.51,11.7,11.7,0,0,0-2.51,4.29,21.49,21.49,0,0,0,0,12.32,11.69,11.69,0,0,0,2.51,4.29,10,10,0,0,0,3.78,2.51,13.11,13.11,0,0,0,4.66.82,13.24,13.24,0,0,0,4.7-.82,10,10,0,0,0,3.78-2.51,11.69,11.69,0,0,0,2.51-4.29A21.49,21.49,0,0,0,669,865.23Z" transform="translate(-198.33 -199.29)"/><path class="cls-2" d="M693.81,874.93q-5.58-6-11.16-11.91,0,1.2-.09,3.22t0,5.49c0,0.6,0,1.35,0,2.23s0,1.82,0,2.79,0,2,.06,3,0.06,1.93.09,2.79,0.06,1.61.09,2.25,0.06,1.08.09,1.31a11.89,11.89,0,0,0-1.5-.09,13.31,13.31,0,0,0-1.59.09c0.06-.29.12-0.82,0.19-1.59s0.14-1.7.19-2.77,0.12-2.24.19-3.5,0.13-2.52.17-3.78,0.08-2.49.11-3.69,0-2.28,0-3.22q0-4.12,0-7.08T680.59,856h0.69l5.6,6.07q3,3.24,5.92,6.4l5.58,6q2.64,2.81,4.62,4.79v-5.84q0-4.51-.06-8.78t-0.28-8a6.19,6.19,0,0,0,1.46.21,6,6,0,0,0,1.37-.21q-0.09.94-.19,2.83t-0.21,4q-0.11,2.15-.19,4.21T704.8,871v2.58q0,1.46,0,3t0,3.2q0,1.61,0,3t0,2.42v1.42h-0.6Q699.39,880.92,693.81,874.93Z" transform="translate(-198.33 -199.29)"/><path class="cls-1" d="M535.15,927.68l4.76-6.72c1.53-2.19,2.94-4.2,4.24-6.09s2.35-3.46,3.18-4.78a7.35,7.35,0,0,0,1.76.26,6.1,6.1,0,0,0,1.65-.26c-0.1,2.28-.19,4.84-0.26,7.69s-0.1,5.76-.1,8.76v5.69c1,0,1.94,0,2.85-.13s1.64-.19,2.22-0.29a5.84,5.84,0,0,0,0,3.42,18.55,18.55,0,0,0-2.22-.24c-0.91,0-1.85-.07-2.85-0.07v2.17c0,1.36,0,2.73.1,4.18s0.13,2.55.2,3.38c-0.68-.06-1.45-0.09-2.27-0.09s-1.58,0-2.28.09c0.08-.89.16-2,0.27-3.46s0.15-2.77.15-4.09v-2.17l-3.44,0-4.71.07c-1.64,0-3.2.08-4.67,0.13l-3.31.13v-0.94c1.51-2.13,3.09-4.36,4.73-6.66m11.3-12.83q-1.09,1.51-2.74,3.85l-3.41,4.86c-1.18,1.67-2.29,3.28-3.34,4.84s-1.87,2.84-2.46,3.83h12.06V914.84h-0.1Zm-39.9,28.3a6.81,6.81,0,0,0,2.74.57,7.54,7.54,0,0,0,4.78-1.55,11.52,11.52,0,0,0,3.24-4.06,21.57,21.57,0,0,0,1.83-5.61,32.75,32.75,0,0,0,.6-6.21h-0.1a9.66,9.66,0,0,1-3.23,3.51,9.17,9.17,0,0,1-5.15,1.35,10,10,0,0,1-7.37-2.66c-1.77-1.79-2.66-4.32-2.66-7.63a11.63,11.63,0,0,1,.81-4.4,10.13,10.13,0,0,1,2.29-3.5,10.94,10.94,0,0,1,3.62-2.32,12.54,12.54,0,0,1,4.76-.86,12.22,12.22,0,0,1,4.43.81,9.31,9.31,0,0,1,3.66,2.59,13.13,13.13,0,0,1,2.53,4.61,21.59,21.59,0,0,1,1,6.9,30.23,30.23,0,0,1-1,8.06,20.92,20.92,0,0,1-3,6.57,14.17,14.17,0,0,1-4.78,4.34A13.19,13.19,0,0,1,509,945.2a11.44,11.44,0,0,1-2.44-.23,15.73,15.73,0,0,1-1.66-.44c-0.09-.38-0.25-0.85-0.44-1.39a8.94,8.94,0,0,0-.59-1.4l0.26-.15a8.86,8.86,0,0,0,2.38,1.55m11.09-29.47a6.22,6.22,0,0,0-5-2.24,6,6,0,0,0-5,2.51,11.18,11.18,0,0,0-1.89,6.9c0,3,.57,5.14,1.71,6.44a5.87,5.87,0,0,0,4.65,1.93,6,6,0,0,0,3.19-.83,7.53,7.53,0,0,0,2.29-2.17,10.45,10.45,0,0,0,1.43-3.11,13.65,13.65,0,0,0,.48-3.62,8.78,8.78,0,0,0-1.89-5.83m-44.28,15.81a10.59,10.59,0,0,1,5.77-4v-0.36a6.53,6.53,0,0,1-2-.81,7.77,7.77,0,0,1-1.84-1.5,7.16,7.16,0,0,1-1.34-2.15,6.73,6.73,0,0,1-.52-2.69,7.28,7.28,0,0,1,.7-3.13,8.33,8.33,0,0,1,2-2.6,9.46,9.46,0,0,1,3.05-1.81,11.34,11.34,0,0,1,4-.68,13.71,13.71,0,0,1,4.44.65,9.31,9.31,0,0,1,3,1.68,6.77,6.77,0,0,1,1.79,2.4,7.31,7.31,0,0,1,.59,2.88,7.79,7.79,0,0,1-1.47,4.57,8.19,8.19,0,0,1-4.31,3v0.36a12.69,12.69,0,0,1,2.17.64,8.35,8.35,0,0,1,2.46,1.51,8.77,8.77,0,0,1,2,2.61,8.64,8.64,0,0,1,.83,4,11.54,11.54,0,0,1-.91,4.65,10.51,10.51,0,0,1-2.48,3.54,10.16,10.16,0,0,1-3.68,2.2,13.51,13.51,0,0,1-4.46.73,17,17,0,0,1-4.55-.6,9.68,9.68,0,0,1-3.68-1.9,9,9,0,0,1-2.43-3.14,9.93,9.93,0,0,1-.89-4.3,10.35,10.35,0,0,1,1.73-5.79m15.13-14a5.85,5.85,0,0,0-1-2.09,5.19,5.19,0,0,0-1.73-1.45,6.16,6.16,0,0,0-5,0,4.85,4.85,0,0,0-1.73,1.45,6.05,6.05,0,0,0-1,2.09,10.36,10.36,0,0,0-.31,2.53,10.51,10.51,0,0,0,.31,2.52,6.12,6.12,0,0,0,1,2.12,5,5,0,0,0,1.73,1.45,6.16,6.16,0,0,0,5,0,5.3,5.3,0,0,0,1.73-1.45,5.91,5.91,0,0,0,1-2.12,10.1,10.1,0,0,0,.31-2.52,10,10,0,0,0-.31-2.53m1.16,16a8.52,8.52,0,0,0-1.39-2.73,6.63,6.63,0,0,0-8-1.81,6.38,6.38,0,0,0-2.19,1.81,8.46,8.46,0,0,0-1.4,2.73,12.54,12.54,0,0,0,0,7,8.5,8.5,0,0,0,1.4,2.74,6.59,6.59,0,0,0,8,1.8,6.52,6.52,0,0,0,2.2-1.8,8.56,8.56,0,0,0,1.39-2.74,12.52,12.52,0,0,0,0-7m-39.63-15a4.5,4.5,0,0,0-1.55-1.65v-0.36c2-.8,4-1.66,6-2.61s4-1.87,5.76-2.76l0.36,0.25q-0.2,3.42-.31,6.75c-0.07,2.22-.1,4.48-0.1,6.75v8.64q0,3.42.1,6.69t0.31,6.43a7.77,7.77,0,0,0-1.21-.09H457a7.78,7.78,0,0,0-1.21.09c0.17-2.13.28-4.29,0.33-6.46s0.08-4.39.08-6.67V913.09Zm-35.38-4.7-2.83,0c-1,0-2,0-2.94.1s-1.93.11-2.85,0.18-1.73.16-2.46,0.26a6.29,6.29,0,0,0,.26-1.65,7,7,0,0,0-.26-1.6l6.68,0.18q3.26,0.07,6.68.07t6.66-.07l6.68-.18a7.12,7.12,0,0,0-.26,1.66,6.15,6.15,0,0,0,.26,1.6c-0.73-.1-1.54-0.2-2.45-0.26s-1.87-.13-2.85-0.18-2-.08-2.94-0.1l-2.82,0c-0.1,3.54-.16,7.11-0.16,10.71v8.89c0,2.28.05,4.51,0.14,6.72s0.18,4.38.29,6.51c-0.8-.06-1.64-0.09-2.53-0.09s-1.74,0-2.54.09c0.1-2.13.2-4.3,0.28-6.51s0.14-4.44.14-6.72v-8.89q0-5.4-.15-10.71m-35.07,28a8.29,8.29,0,0,0,1.71,1.72,8.46,8.46,0,0,0,5.35,1.77,7.75,7.75,0,0,0,3.08-.6,7,7,0,0,0,2.33-1.61,6.92,6.92,0,0,0,1.48-2.38,8.21,8.21,0,0,0,.51-2.91,5.59,5.59,0,0,0-1.22-3.78,10,10,0,0,0-3-2.32,35.62,35.62,0,0,0-3.91-1.72A20.23,20.23,0,0,1,382,926a10.48,10.48,0,0,1-3-3,8.51,8.51,0,0,1-1.22-4.85,9.92,9.92,0,0,1,.77-4,8.82,8.82,0,0,1,2.25-3.08,10.73,10.73,0,0,1,3.54-2,14,14,0,0,1,4.66-.73,13.62,13.62,0,0,1,4.28.6,10.72,10.72,0,0,1,3.37,1.82,11.87,11.87,0,0,0-.78,1.87c-0.21.66-.41,1.49-0.62,2.48H394.6a13.86,13.86,0,0,0-.7-1.58,6,6,0,0,0-1.19-1.58,6.85,6.85,0,0,0-1.78-1.21,5.64,5.64,0,0,0-2.49-.49,7.23,7.23,0,0,0-2.65.46,6.58,6.58,0,0,0-2.12,1.31,6,6,0,0,0-1.4,2.06,6.73,6.73,0,0,0-.48,2.58,5.66,5.66,0,0,0,1.21,3.83,10.59,10.59,0,0,0,3,2.35,29.75,29.75,0,0,0,3.91,1.7,22,22,0,0,1,3.9,1.84,9.94,9.94,0,0,1,3,2.79,7.68,7.68,0,0,1,1.22,4.55,11.87,11.87,0,0,1-.86,4.5,10.68,10.68,0,0,1-2.48,3.7,11,11,0,0,1-4,2.43,15.7,15.7,0,0,1-5.35.86,13.35,13.35,0,0,1-5.2-.86,14,14,0,0,1-3.33-1.93,13.89,13.89,0,0,0,.65-2.15c0.12-.64.23-1.46,0.33-2.46h0.62a10.06,10.06,0,0,0,1.11,1.9m-28.18-24.08q-0.13-3.31-.28-6.61l4.63,0.18c1.53,0,3.08.07,4.63,0.07s3.08,0,4.61-.07l4.6-.18a7.89,7.89,0,0,0-.15,1.55,8.17,8.17,0,0,0,.15,1.55l-3-.21-2.91-.2c-1-.07-2.12-0.13-3.33-0.19s-2.65-.07-4.34-0.07c0,1.11-.07,2.15-0.13,3.15s-0.08,2.14-.08,3.41,0,2.66,0,3.93,0,2.24,0,2.9c1.52,0,2.88,0,4.09-.06s2.31-.07,3.3-0.12l2.77-.15c0.84-.06,1.65-0.11,2.4-0.19a8.27,8.27,0,0,0-.15,1.6,8,8,0,0,0,.15,1.55q-1.34-.15-3.12-0.25t-3.57-.14l-3.36,0-2.51,0c0,0.32,0,.65,0,1s0,0.82,0,1.37v5.12q0,2.94,0,4.85c0,1.27,0,2.25.07,2.9h3.62c1.32,0,2.6,0,3.86-.08s2.45-.11,3.57-0.2a23.49,23.49,0,0,0,2.91-.39,3.83,3.83,0,0,0-.12.8c0,0.3,0,.56,0,0.8a5.2,5.2,0,0,0,.15,1.34q-2.32-.1-4.63-0.09h-9.39c-1.55,0-3.12,0-4.71.09,0.1-2.19.2-4.4,0.28-6.58s0.14-4.43.14-6.7v-8.9q0-3.4-.14-6.72" transform="translate(-198.33 -199.29)"/><path class="cls-1" d="M328.23,930.6H200.67a2,2,0,1,1,0-3.91H328.23A2,2,0,0,1,328.23,930.6Z" transform="translate(-198.33 -199.29)"/><path class="cls-1" d="M705.81,930.66H578.25a2,2,0,0,1,0-4H705.81A2,2,0,0,1,705.81,930.66Z" transform="translate(-198.33 -199.29)"/><path class="cls-1" d="M706.23,648.75H200.33a2,2,0,0,1,0-4h505.9A2,2,0,1,1,706.23,648.75Z" transform="translate(-198.33 -199.29)"/></svg>